<?xml version="1.0" ?><svg xmlns="http://www.w3.org/2000/svg" xmlns:xlink="http://www.w3.org/1999/xlink" width="1000" height="1000"><path transform="scale(1.95312 1.95312)" d="M83.6097 174.715C84.3387 172.438 84.9198 170.066 85.7605 167.832C87.1028 164.266 88.8917 160.57 90.7692 157.25C93.8826 151.744 97.4597 146.801 101.375 141.844C105.885 136.133 110.56 130.477 115.667 125.28C118.77 122.122 122.185 119.215 125.539 116.327C136.973 106.483 149.389 98.0078 162.817 91.0873C189.074 77.5544 219.042 70.1827 248.448 68.158L248.432 60.066C242.485 57.8958 237.945 54.7629 235.021 49L234.879 48.7242C232.127 43.2484 231.809 36.2154 233.778 30.465C235.749 24.71 239.439 20.0532 244.757 17.0595C248.793 14.787 255.58 12.8474 260.25 13.9317C266.628 15.4127 271.486 18.7503 274.993 24.375C278.518 30.0303 279.997 38.629 278.429 45.125C277.228 50.1034 274.009 54.4607 269.597 57.0564C267.776 58.1273 265.525 59.1371 263.51 59.7716L263.707 68.2507C299.46 70.0533 333.935 80.6583 364.125 99.9932C370.878 104.318 377.649 108.968 383.814 114.115L392.441 122.042C395.979 125.387 399.556 128.704 402.828 132.317C414.876 145.622 425.745 161.188 429.561 179C430.131 181.658 430.82 184.314 430.77 187.053C440.549 188.084 451.021 191.957 457.385 199.747C459.853 202.767 461.675 205.923 463.014 209.579C463.491 210.883 464.093 212.259 464.235 213.649C466.118 221.318 465.597 229.5 465.572 237.338C465.556 242.379 465.871 248.151 464.767 253.094C464.856 253.608 464.617 254.63 464.541 255.171C463.981 259.159 462.507 263.576 460.304 266.951C458.033 270.43 455.235 273.685 452.042 276.364C445.154 282.142 435.829 284.799 426.927 283.875L426.653 283.843L425.029 290.414C423.956 293.737 422.564 296.893 421.257 300.125C407.821 333.342 383.602 361.65 353.5 380.998C348.559 384.174 343.303 387.4 338.104 390.129L323.389 397.456C328.832 400.471 333.793 404.313 338.625 408.218C344.622 413.064 350.155 418.225 355.281 424.009C368.826 439.293 379.068 458.549 383.154 478.625C383.868 482.131 384.785 485.484 384.517 489.104C384.4 490.686 383.912 492.127 382.654 493.169C381.072 494.479 378.754 494.904 376.75 494.944L358.696 494.926L321.774 494.919L210.375 494.919L156.266 494.925L144.125 494.972C141.023 495.044 137.905 495.42 134.809 495.01C132.584 494.714 130.395 494.194 129.02 492.277C126.718 489.069 127.125 485.073 127.798 481.376C133.176 451.834 151.379 425.298 174.449 406.623C178.675 403.203 183.526 400.423 188.005 397.335L164.537 385.125C153.947 378.767 144.131 371.279 134.969 363.017C131.478 359.868 127.923 356.78 124.674 353.375C106.253 334.071 91.5749 310.007 85.2723 283.948L84.9784 283.77C82.5744 284.036 79.9911 284.119 77.5869 283.846C73.2713 283.357 69.6626 282.402 65.75 280.505C62.8679 279.107 60.25 277.34 57.9781 275.077C53.0949 270.213 49.2409 263.863 47.6432 257.125C45.7585 249.177 46.2357 240.144 46.2607 232.005C46.2795 225.863 46.0895 219.247 47.5576 213.25C48.9398 207.603 52.2395 202.224 56.3411 198.157C63.0048 191.551 72.2472 187.424 81.6679 187.473L82.1333 182.263L83.6097 174.715ZM97.2765 182.514L97.0751 181.25L96.625 180.877C96.032 181.77 96.097 182.336 96.125 183.377L95.8775 183.75L95.8725 184.875L95.625 184.627C95.2456 185.91 95.3741 187.632 95.326 188.992L95.1924 201.707C95.1901 204.61 94.8887 207.905 95.2856 210.752L95.0128 249.769L95.4026 260.101L95.4557 267.043C95.4595 268.007 95.3333 269.242 95.8438 270.086C96.7482 271.58 95.9154 273.669 96.7828 275.23C97.2002 275.981 97.332 277.199 97.3063 278.052C97.2851 278.754 97.5845 279.28 97.9079 279.876C98.1749 280.368 98.1469 280.843 98.1947 281.386C98.2348 281.842 98.3841 282.191 98.4935 282.625L98.625 283.414L98.923 283.75C99.1877 284.238 99.1751 284.992 99.125 285.519L99.454 285.625L99.625 286.769L99.9102 286.875C100.041 287.355 100.158 287.75 100.125 288.25L100.267 288.446C100.511 288.817 100.646 289.203 100.813 289.612C100.926 289.89 101.192 290.358 101.244 290.625C101.256 290.692 101.112 291.067 101.127 291.125C101.209 291.429 101.824 291.811 101.967 292.125C102.121 292.463 102.129 293.021 102.125 293.394L102.426 293.589C103.141 294.079 103.043 295.868 103.917 295.875L103.955 296.328C104.005 296.863 104.205 297.751 104.625 298.123L104.896 298.285L105.459 299.93C105.898 299.512 106.075 299.247 106.276 298.674L113.731 313.388C120.012 324.52 128.194 334.617 137.082 343.747C141.449 348.233 145.93 352.743 150.701 356.801C154.933 360.4 159.554 363.573 164.15 366.677C174.786 373.861 185.987 380.058 197.942 384.79C204.508 387.389 211.22 389.418 218.017 391.304C228.657 394.258 239.777 395.354 250.783 395.562C264.256 395.817 277.939 394.726 291.094 391.691C301.43 389.306 311.325 385.803 321 381.499C324.44 379.969 327.975 378.681 331.257 376.817C340.332 371.662 349.226 366.127 357.474 359.711C376.191 345.151 393.002 325.389 403.35 303.999C407.026 296.4 409.848 288.414 412.082 280.284L414.746 267.639C414.616 266.373 415.148 264.486 415.296 263.174C415.712 259.492 416.109 255.84 416.229 252.133L416.36 213.043L416.346 198.432C416.333 194.337 416.384 190.288 415.696 186.237C414.31 178.082 411.396 170.301 407.167 163.197C402.324 155.059 396.189 147.613 389.772 140.687C365.18 114.147 332.978 96.6282 298 88.0356C284.793 84.7911 271.002 83.416 257.431 83.2895C250.239 83.2224 242.936 83.1244 235.773 83.8519C230.325 84.4054 224.982 85.4569 219.624 86.5574C198.508 90.8946 178.159 98.897 159.817 110.245C151.782 115.216 144.038 120.47 136.819 126.586C130.629 131.831 125.118 137.608 119.599 143.53C113.209 150.387 107.111 157.597 102.879 166.034C100.171 171.431 98.655 176.663 97.2765 182.514ZM151.125 458.505C150.896 459.01 149.644 462.148 149.364 462.277L143.848 479.551L333.631 479.462C336.617 479.035 340.017 479.327 343.046 479.308L360.974 479.102C363.181 479.08 365.877 479.389 368.017 479.022C368.146 477.514 367.02 475.469 366.517 474.085C362.968 464.32 358.923 454.785 353.165 446.077C347.689 437.795 341.187 429.717 333.682 423.174C327.41 417.706 320.63 413.174 313.555 408.838L307.183 405.185C306.66 404.917 305.66 404.29 305.119 404.225C303.457 404.027 300.616 405.012 298.973 405.439L291.39 407.176L277.981 409.326C270.55 410.326 263.148 410.596 255.663 410.632C251.908 410.65 247.977 410.766 244.239 410.45C236.636 409.808 228.885 408.616 221.375 407.257L207.569 404.11C203.697 405.627 200.261 407.789 196.7 409.894C176.923 421.59 161.638 438.127 151.125 458.505ZM77.2494 203.036C74.4988 203.655 72.151 204.182 69.7596 205.776L69.5158 205.932C65.8383 208.331 63.4897 212.956 62.6556 217.154C61.2073 224.444 61.5726 231.607 61.5836 238.988C61.5903 243.532 61.3233 248.205 62.1416 252.69C62.4678 254.478 63.2871 256.283 64.1465 257.875L64.3491 258.259C65.7495 260.855 68.1913 263.013 70.3743 264.949C74.0704 267.566 77.4368 268 81.7395 268.927L80.695 202.949L77.2494 203.036ZM431.442 210.097L430.866 244.459L430.541 261.137C430.512 263.456 430.179 266.794 430.754 268.996C434.3 268.852 437.547 268.077 440.56 266.192C444.656 263.627 448.704 257.929 449.736 253.181L449.824 252.75C450.828 248.021 450.374 242.73 450.389 237.886C450.404 232.925 450.737 227.64 450.086 222.726C449.63 219.284 448.845 215.813 447.337 212.668C445.195 208.197 440.983 205.012 436.367 203.45L431.525 201.878L431.442 210.097ZM254.552 29.4991C251.889 30.5165 249.32 32.1146 248.105 34.8145C247.217 36.7887 247.188 39.2545 248.066 41.2476C248.477 42.1819 249.06 42.9969 249.756 43.7336L249.942 43.9383C251.091 45.1602 254.015 46.1479 255.692 46.2497C256.448 46.2955 257.231 46.1171 257.964 45.9601C260.037 45.3382 261.431 44.2838 262.781 42.625L262.997 42.365C264.141 40.9058 264.664 38.5078 264.389 36.7032C264.072 34.6246 263.007 32.7978 261.287 31.5618C259.461 30.2492 256.826 29.3779 254.552 29.4991ZM143.86 493.875L142.812 494.039C144.019 494.509 145.91 494.25 147.23 494.259L159.056 494.28L200.329 494.286L331.799 494.276L364.999 494.26L373.426 494.245C374.893 494.241 376.652 494.407 378.078 494.125C377.213 493.661 375.593 493.868 374.592 493.869L365.905 493.872L327.746 493.868L316.248 493.867C314.112 493.867 311.87 494.008 309.75 493.801C308.836 493.712 307.924 493.901 307 493.801C305.081 493.595 302.965 493.921 301 493.801C299.349 493.7 297.668 493.9 296 493.801C294.766 493.728 293.217 493.708 292 493.801L287.75 493.801L282.875 493.772C281.356 493.67 279.765 493.71 278.25 493.801C277.344 493.856 276.419 493.754 275.5 493.801L274.75 493.801L274.422 493.805C272.356 493.805 270.315 493.677 268.25 493.801C267.249 493.861 266.001 493.854 265 493.801L256 493.801L253.562 493.838L246.844 493.764L241.844 493.764C241.466 493.739 241.215 493.757 240.852 493.797C239.575 493.941 238.278 493.871 237 493.801L228.578 493.838C228.208 493.863 227.965 493.846 227.609 493.801C227.155 493.744 226.935 493.778 226.5 493.801C222.99 493.988 219.389 493.795 215.875 493.795C213.47 493.795 210.958 494.053 208.562 493.828C206.829 493.665 205.01 493.929 203.25 493.801C201.487 493.673 199.535 493.864 197.746 493.865C191.466 493.87 185.004 494.186 178.75 493.801C172.817 493.436 166.681 494.355 160.75 493.805L143.86 493.875ZM430.754 268.996C430.179 266.794 430.512 263.456 430.541 261.137L430.866 244.459L431.442 210.097L431.129 211.375C430.798 209.161 430.93 206.815 430.918 204.578C430.516 206.1 430.618 207.689 430.591 209.25L430.419 216.118L429.634 234.753L429.523 259.369L429.567 264.505C429.572 265.18 429.466 266.195 429.77 266.797L429.91 267L429.843 267.28C429.768 267.819 429.954 268.189 430.134 268.687L430.754 268.996ZM464.235 213.649C464.169 214.851 463.757 217.82 464.377 218.75L464.411 241.268C464.409 242.771 463.954 247.989 464.627 249C464.645 250.325 464.534 251.793 464.767 253.094C465.871 248.151 465.556 242.379 465.572 237.338C465.597 229.5 466.118 221.318 464.235 213.649ZM368.017 479.022C365.877 479.389 363.181 479.08 360.974 479.102L343.046 479.308C340.017 479.327 336.617 479.035 333.631 479.462C336.751 480.028 340.423 479.507 343.625 479.622C344.642 479.659 345.64 479.874 346.662 479.911L364.743 480.029C365.685 480.006 367.265 480.248 368.089 479.872L368.017 479.022ZM412.082 280.284C412.43 280.275 412.582 280.446 412.875 280.623C413.375 280.163 413.616 279.104 413.637 278.421L413.625 278.182C413.923 277.768 413.948 277.616 414.021 277.125L414.698 273.25C414.9 272.533 415.383 271.109 415.219 270.375C415.203 270.307 414.768 269.83 414.743 269.75C414.591 269.257 414.739 268.186 414.746 267.639L412.082 280.284ZM83.6097 174.715L82.1333 182.263C82.391 182.338 82.4285 182.529 82.5685 182.749L82.9375 182.312L83 183.125C83.5399 181.713 83.4915 180.087 83.9048 178.64L84.3346 176.744C84.5498 176.037 84.6005 175.426 84.6238 174.688L84.125 174.575L84.1618 176.054C83.932 175.622 83.779 175.173 83.6097 174.715ZM149.364 462.277C149.644 462.148 150.896 459.01 151.125 458.505L150.822 458.159C150.561 457.858 150.413 457.645 150.311 457.251C150.07 457.685 150.066 457.981 149.572 458.125L149.53 458.401C149.401 459.186 149.314 459.591 148.78 460.215C148.481 460.563 148.497 460.659 148.416 461.095C148.299 461.73 147.998 462.281 148.058 462.918L148.375 463.306L149.04 462.065L149.364 462.277Z"/><path transform="scale(1.95312 1.95312)" d="M149.364 462.277L149.04 462.065L148.375 463.306L148.058 462.918C147.998 462.281 148.299 461.73 148.416 461.095C148.497 460.659 148.481 460.563 148.78 460.215C149.314 459.591 149.401 459.186 149.53 458.401L149.572 458.125C150.066 457.981 150.07 457.685 150.311 457.251C150.413 457.645 150.561 457.858 150.822 458.159L151.125 458.505C150.896 459.01 149.644 462.148 149.364 462.277Z"/><path fill="#010001" fill-opacity="0.96470588" transform="scale(1.95312 1.95312)" d="M83.6097 174.715C83.779 175.173 83.932 175.622 84.1618 176.054L84.125 174.575L84.6238 174.688C84.6005 175.426 84.5498 176.037 84.3346 176.744L83.9048 178.64C83.4915 180.087 83.5399 181.713 83 183.125L82.9375 182.312L82.5685 182.749C82.4285 182.529 82.391 182.338 82.1333 182.263L83.6097 174.715Z"/><path fill="#010001" fill-opacity="0.96470588" transform="scale(1.95312 1.95312)" d="M412.082 280.284L414.746 267.639C414.739 268.186 414.591 269.257 414.743 269.75C414.768 269.83 415.203 270.307 415.219 270.375C415.383 271.109 414.9 272.533 414.698 273.25L414.021 277.125C413.948 277.616 413.923 277.768 413.625 278.182L413.637 278.421C413.616 279.104 413.375 280.163 412.875 280.623C412.582 280.446 412.43 280.275 412.082 280.284Z"/><path transform="scale(1.95312 1.95312)" d="M368.017 479.022L368.089 479.872C367.265 480.248 365.685 480.006 364.743 480.029L346.662 479.911C345.64 479.874 344.642 479.659 343.625 479.622C340.423 479.507 336.751 480.028 333.631 479.462C336.617 479.035 340.017 479.327 343.046 479.308L360.974 479.102C363.181 479.08 365.877 479.389 368.017 479.022Z"/><path fill="#010001" fill-opacity="0.98039216" transform="scale(1.95312 1.95312)" d="M464.235 213.649C466.118 221.318 465.597 229.5 465.572 237.338C465.556 242.379 465.871 248.151 464.767 253.094C464.534 251.793 464.645 250.325 464.627 249C463.954 247.989 464.409 242.771 464.411 241.268L464.377 218.75C463.757 217.82 464.169 214.851 464.235 213.649Z"/><path transform="scale(1.95312 1.95312)" d="M430.754 268.996L430.134 268.687C429.954 268.189 429.768 267.819 429.843 267.28L429.91 267L429.77 266.797C429.466 266.195 429.572 265.18 429.567 264.505L429.523 259.369L429.634 234.753L430.419 216.118L430.591 209.25C430.618 207.689 430.516 206.1 430.918 204.578C430.93 206.815 430.798 209.161 431.129 211.375L431.442 210.097L430.866 244.459L430.541 261.137C430.512 263.456 430.179 266.794 430.754 268.996Z"/><path transform="scale(1.95312 1.95312)" d="M143.86 493.875L160.75 493.805C166.681 494.355 172.817 493.436 178.75 493.801C185.004 494.186 191.466 493.87 197.746 493.865C199.535 493.864 201.487 493.673 203.25 493.801C205.01 493.929 206.829 493.665 208.562 493.828C210.958 494.053 213.47 493.795 215.875 493.795C219.389 493.795 222.99 493.988 226.5 493.801C226.935 493.778 227.155 493.744 227.609 493.801C227.965 493.846 228.208 493.863 228.578 493.838L237 493.801C238.278 493.871 239.575 493.941 240.852 493.797C241.215 493.757 241.466 493.739 241.844 493.764L246.844 493.764L253.562 493.838L256 493.801L265 493.801C266.001 493.854 267.249 493.861 268.25 493.801C270.315 493.677 272.356 493.805 274.422 493.805L274.75 493.801L275.5 493.801C276.419 493.754 277.344 493.856 278.25 493.801C279.765 493.71 281.356 493.67 282.875 493.772L287.75 493.801L292 493.801C293.217 493.708 294.766 493.728 296 493.801C297.668 493.9 299.349 493.7 301 493.801C302.965 493.921 305.081 493.595 307 493.801C307.924 493.901 308.836 493.712 309.75 493.801C311.87 494.008 314.112 493.867 316.248 493.867L327.746 493.868L365.905 493.872L374.592 493.869C375.593 493.868 377.213 493.661 378.078 494.125C376.652 494.407 374.893 494.241 373.426 494.245L364.999 494.26L331.799 494.276L200.329 494.286L159.056 494.28L147.23 494.259C145.91 494.25 144.019 494.509 142.812 494.039L143.86 493.875Z"/><path transform="scale(1.95312 1.95312)" d="M95.2856 210.752C94.8887 207.905 95.1901 204.61 95.1924 201.707L95.326 188.992C95.3741 187.632 95.2456 185.91 95.625 184.627L95.8725 184.875L95.8775 183.75L96.125 183.377C96.097 182.336 96.032 181.77 96.625 180.877L97.0751 181.25L97.2765 182.514C95.6196 192.117 96.2166 202.266 96.2212 211.982L96.2259 217.968C96.2267 218.855 96.3563 219.979 96.2038 220.843C95.6945 221.941 95.8876 223.545 95.8824 224.749L95.7267 224.625L95.6275 212.125L95.3775 211.75C95.7322 211.392 95.6244 211.365 95.6222 210.887L95.2856 210.752Z"/><path transform="scale(1.95312 1.95312)" d="M95.2856 210.752L95.6222 210.887C95.6244 211.365 95.7322 211.392 95.3775 211.75L95.6275 212.125L95.7267 224.625L95.8824 224.749C95.8876 223.545 95.6945 221.941 96.2038 220.843L96.2067 248.799L96.495 262.323C96.6015 264.425 96.5956 266.512 96.9104 268.599C97.7797 274.363 99.2078 280.462 101.119 285.981C102.626 290.33 104.484 294.448 106.276 298.674C106.075 299.247 105.898 299.512 105.459 299.93L104.896 298.285L104.625 298.123C104.205 297.751 104.005 296.863 103.955 296.328L103.917 295.875C103.043 295.868 103.141 294.079 102.426 293.589L102.125 293.394C102.129 293.021 102.121 292.463 101.967 292.125C101.824 291.811 101.209 291.429 101.127 291.125C101.112 291.067 101.256 290.692 101.244 290.625C101.192 290.358 100.926 289.89 100.813 289.612C100.646 289.203 100.511 288.817 100.267 288.446L100.125 288.25C100.158 287.75 100.041 287.355 99.9102 286.875L99.625 286.769L99.454 285.625L99.125 285.519C99.1751 284.992 99.1877 284.238 98.923 283.75L98.625 283.414L98.4935 282.625C98.3841 282.191 98.2348 281.842 98.1947 281.386C98.1469 280.843 98.1749 280.368 97.9079 279.876C97.5845 279.28 97.2851 278.754 97.3063 278.052C97.332 277.199 97.2002 275.981 96.7828 275.23C95.9154 273.669 96.7482 271.58 95.8438 270.086C95.3333 269.242 95.4595 268.007 95.4557 267.043L95.4026 260.101L95.0128 249.769L95.2856 210.752Z"/><path transform="scale(1.95312 1.95312)" d="M206.286 315.271C210.435 315.191 213.728 316.374 217.625 317.483L225.938 319.625C232.282 321.156 238.488 321.941 244.962 322.567C248.797 322.937 252.777 323.343 256.632 323.247C264.96 323.04 273.449 322.307 281.649 320.848L291.729 318.57C295.048 317.689 298.248 316.382 301.633 315.768C302.791 315.557 304.082 315.311 305.248 315.583C307.184 316.036 308.96 317.471 309.94 319.18C310.839 320.75 310.981 323.045 310.484 324.75C309.741 327.292 307.215 328.894 305.031 330.083C293.262 334.867 281.448 336.909 268.823 337.809C257.583 338.61 246.147 338.363 234.978 336.845C226.338 335.67 218.294 334.287 210.034 331.355C206.889 330.239 202.866 328.306 201.453 325.085C200.613 323.169 201.028 320.986 201.824 319.125C202.628 317.242 204.439 315.965 206.286 315.271Z"/><path transform="scale(1.95312 1.95312)" d="M230.642 138.226C239.696 136.761 249.614 137.587 258.751 137.937C260.974 138.023 263.674 137.806 265.837 138.219C271.598 138.158 277.536 138.14 283.28 138.549L288.72 139.204C309.82 141.156 330.564 145.636 350.501 152.872C363.578 157.618 376.935 163.578 387.042 173.412C390.94 177.204 395.046 183.227 396.126 188.631C396.986 193.641 396.971 198.368 396.979 203.433L396.994 218.336C397.002 229.888 397.521 241.682 396.426 253.186C396.181 255.751 395.561 258.94 394.432 261.249C394.503 262.158 393.049 264.662 392.606 265.558C385.175 280.601 354.754 292.874 339.25 297.984C323.972 303.018 307.957 305.812 292.04 307.824C284.768 308.744 277.457 309.651 270.125 309.925L250.103 309.775C239.444 309.67 228.987 309.453 218.391 308.038C207.353 306.563 196.778 303.976 186 301.285C172.227 297.847 158.737 293.726 146.088 287.151C135.249 281.517 123.044 273.405 117.912 261.912C117.417 260.804 117.167 259.629 116.801 258.478C115.86 255.522 115.466 252.686 115.228 249.606C114.903 248.172 114.899 246.54 114.794 245.071L114.508 233.758L114.492 213.495L114.489 202.087C114.487 199.736 114.369 197.305 114.645 194.967C114.806 193.609 114.925 192.268 115.26 190.938C116.268 185.636 119.131 180.553 122.632 176.502C128.326 169.912 135.163 165.275 142.718 161.125C153.916 154.973 165.699 150.828 177.984 147.434C195.276 142.656 212.73 139.477 230.642 138.226ZM129.529 202.119L129.538 238.181L129.524 246.015C129.521 247.858 129.415 249.662 129.84 251.465L129.939 251.909C130.723 255.298 132.966 258.147 135.151 260.748C136.397 262.308 138.101 263.923 139.634 265.198C146.903 271.244 155.812 275.366 164.537 278.812C177.991 284.127 191.92 287.821 206.125 290.493C218.054 292.736 229.976 294.494 242.112 295.14L255.649 295.288C267.183 295.283 278.657 294.751 290.125 293.468C295.774 292.836 301.553 291.654 307.125 290.521C326.414 286.599 345.595 281.106 362.862 271.437C368.04 268.538 373.51 265.192 377.203 260.424L377.375 260.197C380.883 255.625 381.779 249.968 382.281 244.392L382.244 197.581C382.054 195.572 381.962 193.624 381.324 191.69C380.106 187.995 376.679 184.135 373.726 181.672C368.633 177.422 362.64 174.435 356.625 171.752C351.083 169.28 345.624 167.245 339.848 165.396C325.518 160.812 310.818 157.041 295.915 154.83C291.376 154.156 286.699 153.902 282.123 153.532L274.879 152.81L259.702 152.583L241.596 152.586L224.786 153.853C216.236 154.697 207.786 156.097 199.365 157.788C179.768 161.724 160.677 167.686 143.432 177.979L140.144 180.228C139.025 180.942 138.002 181.972 137.004 182.856C133.084 186.326 130.936 189.58 129.889 194.795C129.418 197.139 129.544 199.731 129.529 202.119ZM396.126 188.631C395.67 189.637 395.603 189.936 395.822 191.021C396.095 192.372 395.885 194.162 395.885 195.554L395.885 205.743L395.875 250.127L395.501 250.251C395.398 250.668 395.383 250.948 395.382 251.384C395.38 252.13 395.128 252.821 395.125 253.627L394.877 254C394.876 254.539 395.02 254.982 394.627 255.375L394.877 255.879L394.818 256.019L394.549 255.751C394.36 256.872 394.185 257.982 393.712 259.022C393.292 259.944 393.48 260.859 392.877 261.75L393.127 262.375L393.449 262.456C393.848 261.877 393.992 261.205 394.347 260.587L394.432 261.249C395.561 258.94 396.181 255.751 396.426 253.186C397.521 241.682 397.002 229.888 396.994 218.336L396.979 203.433C396.971 198.368 396.986 193.641 396.126 188.631ZM135.151 260.748C132.966 258.147 130.723 255.298 129.939 251.909L129.84 251.465C129.415 249.662 129.521 247.858 129.524 246.015L129.538 238.181L129.529 202.119C129.154 204.07 129.011 205.906 128.812 207.876C128.732 206.593 128.617 205.033 128.903 203.776C129.245 202.276 129.155 198.702 128.616 197.261L128.49 234.932L128.492 245.929C128.489 247.817 128.334 249.884 128.568 251.75C128.632 252.259 128.841 252.573 129.088 253.004C129.323 253.413 129.292 253.788 129.294 254.247L129.507 254.45C130.163 255.088 129.99 255.845 130.517 256.387C130.843 256.723 130.882 257.016 131.102 257.403L131.277 257.63C131.549 257.988 131.694 258.36 131.875 258.771C132.602 259.181 132.512 259.63 133.071 260.008C133.568 260.343 133.829 260.873 134.131 261.375L134.685 261.673C134.821 261.381 134.951 260.997 135.151 260.748ZM115.26 190.938C114.925 192.268 114.806 193.609 114.645 194.967C114.369 197.305 114.487 199.736 114.489 202.087L114.492 213.495L114.508 233.758L114.794 245.071C114.899 246.54 114.903 248.172 115.228 249.606C115.385 248.45 115.185 247.268 115.317 246.125C115.97 240.443 115.574 234.488 115.565 228.75L115.635 196.017C115.628 194.254 115.254 192.715 115.26 190.938ZM382.244 197.581L382.281 244.392L382.61 246.25L382.938 245.938C383.196 244.212 382.995 242.227 382.993 240.476L383.062 230.718L383.042 195.875L382.702 195.624L382.244 197.581ZM230.642 138.226C239.498 138.846 248.432 138.512 257.307 138.386C259.961 138.348 263.288 138.738 265.837 138.219C263.674 137.806 260.974 138.023 258.751 137.937C249.614 137.587 239.696 136.761 230.642 138.226Z"/><path fill="#010001" fill-opacity="0.96470588" transform="scale(1.95312 1.95312)" d="M230.642 138.226C239.696 136.761 249.614 137.587 258.751 137.937C260.974 138.023 263.674 137.806 265.837 138.219C263.288 138.738 259.961 138.348 257.307 138.386C248.432 138.512 239.498 138.846 230.642 138.226Z"/><path transform="scale(1.95312 1.95312)" d="M382.244 197.581L382.702 195.624L383.042 195.875L383.062 230.718L382.993 240.476C382.995 242.227 383.196 244.212 382.938 245.938L382.61 246.25L382.281 244.392L382.244 197.581Z"/><path fill="#010001" fill-opacity="0.96470588" transform="scale(1.95312 1.95312)" d="M115.26 190.938C115.254 192.715 115.628 194.254 115.635 196.017L115.565 228.75C115.574 234.488 115.97 240.443 115.317 246.125C115.185 247.268 115.385 248.45 115.228 249.606C114.903 248.172 114.899 246.54 114.794 245.071L114.508 233.758L114.492 213.495L114.489 202.087C114.487 199.736 114.369 197.305 114.645 194.967C114.806 193.609 114.925 192.268 115.26 190.938Z"/><path transform="scale(1.95312 1.95312)" d="M135.151 260.748C134.951 260.997 134.821 261.381 134.685 261.673L134.131 261.375C133.829 260.873 133.568 260.343 133.071 260.008C132.512 259.63 132.602 259.181 131.875 258.771C131.694 258.36 131.549 257.988 131.277 257.63L131.102 257.403C130.882 257.016 130.843 256.723 130.517 256.387C129.99 255.845 130.163 255.088 129.507 254.45L129.294 254.247C129.292 253.788 129.323 253.413 129.088 253.004C128.841 252.573 128.632 252.259 128.568 251.75C128.334 249.884 128.489 247.817 128.492 245.929L128.49 234.932L128.616 197.261C129.155 198.702 129.245 202.276 128.903 203.776C128.617 205.033 128.732 206.593 128.812 207.876C129.011 205.906 129.154 204.07 129.529 202.119L129.538 238.181L129.524 246.015C129.521 247.858 129.415 249.662 129.84 251.465L129.939 251.909C130.723 255.298 132.966 258.147 135.151 260.748Z"/><path transform="scale(1.95312 1.95312)" d="M396.126 188.631C396.986 193.641 396.971 198.368 396.979 203.433L396.994 218.336C397.002 229.888 397.521 241.682 396.426 253.186C396.181 255.751 395.561 258.94 394.432 261.249L394.347 260.587C393.992 261.205 393.848 261.877 393.449 262.456L393.127 262.375L392.877 261.75C393.48 260.859 393.292 259.944 393.712 259.022C394.185 257.982 394.36 256.872 394.549 255.751L394.818 256.019L394.877 255.879L394.627 255.375C395.02 254.982 394.876 254.539 394.877 254L395.125 253.627C395.128 252.821 395.38 252.13 395.382 251.384C395.383 250.948 395.398 250.668 395.501 250.251L395.875 250.127L395.885 205.743L395.885 195.554C395.885 194.162 396.095 192.372 395.822 191.021C395.603 189.936 395.67 189.637 396.126 188.631Z"/><path transform="scale(1.95312 1.95312)" d="M192.049 193.977C196.501 192.67 202.087 192.844 206.612 193.748C212.741 194.524 218.864 199.26 222.507 203.988C224.114 206.074 225.415 208.419 226.409 210.858C226.557 211.224 226.96 211.99 226.959 212.349C228.884 217.431 229.334 223.153 228.771 228.547C228.656 229.655 228.604 231.066 228.187 232.107L228.087 232.314C227.702 234.76 226.627 237.336 225.512 239.525C222.305 245.819 215.636 251.07 208.947 253.201L208.533 253.329L206.386 253.947C197.393 255.839 188.851 254.423 181.125 249.445L180.753 249.208C174.735 245.29 170.81 238.13 169.314 231.242C167.341 222.163 169.068 213.204 174.217 205.464C178.218 199.449 185.112 195.466 192.049 193.977ZM197.748 208.338C192.927 209.194 189.155 210.772 186.243 214.91C184.188 217.831 183.008 223.13 183.724 226.667C184.533 230.66 186.378 234.58 189.875 236.923C192.907 238.955 196.598 239.812 200.203 239.454C204.067 238.75 207.232 237.613 209.875 234.613C213.03 231.031 214.361 227.464 214.088 222.63C213.849 218.383 211.713 214.289 208.593 211.451C206.029 209.118 201.605 208.037 198.217 208.296L197.748 208.338ZM226.959 212.349L226.614 212.89L226.474 213.099C226.149 213.764 226.366 215.353 226.377 216.125L226.612 216.398C227.219 217.157 227.225 217.868 227.093 218.81L226.968 219.375C226.91 219.806 226.979 220.023 227.115 220.42C227.509 221.568 227.266 223.367 227.261 224.592C227.255 226.311 227.449 228.179 227.285 229.875C227.144 231.332 226.537 232.629 226.38 234.086C226.338 234.482 226.364 234.327 226.177 234.75L226.438 235.312L226.735 235.375C226.945 234.705 227.144 234.069 227.267 233.376C227.332 233.009 227.503 232.719 227.672 232.392L228.087 232.314L228.187 232.107C228.604 231.066 228.656 229.655 228.771 228.547C229.334 223.153 228.884 217.431 226.959 212.349ZM192.049 193.977C193.535 195.026 194.233 194.422 195.867 194.485C196.671 194.516 197.456 194.349 198.257 194.336C199.191 194.321 200.073 194.515 200.997 194.272C202.817 193.795 204.739 193.807 206.612 193.748C202.087 192.844 196.501 192.67 192.049 193.977Z"/><path fill="#010001" fill-opacity="0.96470588" transform="scale(1.95312 1.95312)" d="M192.049 193.977C196.501 192.67 202.087 192.844 206.612 193.748C204.739 193.807 202.817 193.795 200.997 194.272C200.073 194.515 199.191 194.321 198.257 194.336C197.456 194.349 196.671 194.516 195.867 194.485C194.233 194.422 193.535 195.026 192.049 193.977Z"/><path transform="scale(1.95312 1.95312)" d="M226.959 212.349C228.884 217.431 229.334 223.153 228.771 228.547C228.656 229.655 228.604 231.066 228.187 232.107L228.087 232.314L227.672 232.392C227.503 232.719 227.332 233.009 227.267 233.376C227.144 234.069 226.945 234.705 226.735 235.375L226.438 235.312L226.177 234.75C226.364 234.327 226.338 234.482 226.38 234.086C226.537 232.629 227.144 231.332 227.285 229.875C227.449 228.179 227.255 226.311 227.261 224.592C227.266 223.367 227.509 221.568 227.115 220.42C226.979 220.023 226.91 219.806 226.968 219.375L227.093 218.81C227.225 217.868 227.219 217.157 226.612 216.398L226.377 216.125C226.366 215.353 226.149 213.764 226.474 213.099L226.614 212.89L226.959 212.349Z"/><path transform="scale(1.95312 1.95312)" d="M341.955 233.966C341.282 236.86 339.45 240.183 337.696 242.554C332.637 249.393 324.779 253.441 316.5 254.764C313.533 255.239 309.956 254.757 307 254.277C302.864 253.604 298.681 251.782 295.24 249.408C289.251 245.276 284.703 237.775 283.457 230.589C281.996 222.161 282.862 212.582 288.014 205.45C293.138 198.357 299.877 194.487 308.5 193.179C316.25 192.004 324.362 193.73 330.75 198.28C336.645 202.478 339.933 208.56 342.156 215.251C343.31 221.037 344.08 228.331 341.955 233.966ZM312.969 208.343C307.813 208.911 303.854 210.269 300.536 214.453C298.441 217.095 296.876 222.003 297.264 225.42C297.786 230.019 300.104 233.667 303.803 236.414C306.624 238.509 309.747 239.394 313.195 239.679C316.889 239.248 321.549 238.063 324.008 235.023C327.331 230.917 328.705 226.828 328.087 221.563C327.622 217.6 325.471 213.586 322.277 211.189L320.569 210.085C318.1 208.512 315.78 208.432 312.969 208.343ZM342.156 215.251L341.377 215.875C341.374 217.435 340.968 220.544 341.627 221.875C342.217 223.066 341.89 225.623 341.875 227L341.501 226.562C341.215 227.703 341.483 229.024 341.407 230.209C341.322 231.539 340.81 232.625 340.506 233.875C340.33 234.602 340.368 235.207 339.965 235.875L340.127 236.375L340.446 236.462C340.781 235.982 340.735 235.992 340.875 235.456L341.053 235.121C341.288 234.659 341.188 234.508 341.291 234.051C341.359 233.749 341.493 233.558 341.73 233.381L341.955 233.966C344.08 228.331 343.31 221.037 342.156 215.251Z"/><path transform="scale(1.95312 1.95312)" d="M342.156 215.251C343.31 221.037 344.08 228.331 341.955 233.966L341.73 233.381C341.493 233.558 341.359 233.749 341.291 234.051C341.188 234.508 341.288 234.659 341.053 235.121L340.875 235.456C340.735 235.992 340.781 235.982 340.446 236.462L340.127 236.375L339.965 235.875C340.368 235.207 340.33 234.602 340.506 233.875C340.81 232.625 341.322 231.539 341.407 230.209C341.483 229.024 341.215 227.703 341.501 226.562L341.875 227C341.89 225.623 342.217 223.066 341.627 221.875C340.968 220.544 341.374 217.435 341.377 215.875L342.156 215.251Z"/></svg>