<svg xmlns="http://www.w3.org/2000/svg" viewBox="0 0 32 32"><defs><style>.cls-1{fill:none;stroke:#053c5e;stroke-linejoin:round;stroke-width:2px;}</style></defs><title>48-Question</title><g id="_48-Question" data-name="48-Question"><polyline class="cls-1" points="26 9 26 1 21 1 11 1 6 1 6 31 26 31 26 27"/><path class="cls-1" d="M11,1V3a2,2,0,0,0,2,2h6a2,2,0,0,0,2-2V1"/><path class="cls-1" d="M20,16a3,3,0,1,1,3,3v2"/><line class="cls-1" x1="22" y1="23" x2="24" y2="23"/><polygon class="cls-1" points="26 9 16 9 16 18 11 23 16 23 16 27 26 27 30 27 30 9 26 9"/></g></svg>